<svg version="1.1" id="Layer_1" xmlns="http://www.w3.org/2000/svg" xmlns:xlink="http://www.w3.org/1999/xlink" x="0px"
     y="0px"
     width="100%" viewBox="0 0 352 464" enable-background="new 0 0 352 464" xml:space="preserve">
<path fill="currentColor" opacity="1.000000" stroke="none"
      d="
M336.472107,245.299454 
	C329.783997,271.463348 320.003906,295.979919 307.960785,319.668091 
	C289.125397,356.716278 264.757660,389.614960 234.531982,418.110382 
	C218.250214,433.460114 200.219788,446.615173 181.610046,458.999969 
	C178.928207,460.784698 177.003189,459.727142 174.767609,458.461487 
	C159.472809,449.802673 145.604370,439.162170 132.302567,427.765045 
	C97.463409,397.914398 69.628090,362.489227 48.437958,321.830322 
	C29.564476,285.616516 18.042919,247.007614 11.671449,206.820618 
	C7.940234,183.286606 7.055352,159.484467 6.813453,135.700134 
	C6.535525,108.373360 6.972728,81.039391 6.706885,53.712364 
	C6.646133,47.467419 8.758430,44.482212 14.506993,41.785694 
	C38.735363,30.420723 63.901733,21.898167 89.726524,15.147173 
	C97.289589,13.170073 97.302841,13.210752 97.306198,20.830957 
	C97.309555,28.460056 97.306938,36.089157 97.306938,44.443657 
	C105.361687,43.092484 112.807739,41.783226 120.275497,40.612457 
	C125.033936,39.866444 129.812637,39.204586 134.604691,38.732975 
	C138.152893,38.383781 140.004868,37.072414 139.877182,33.117538 
	C139.646057,25.959183 139.895569,18.786587 139.774261,11.622818 
	C139.720154,8.427697 140.559280,6.885863 144.190292,6.615022 
	C165.335480,5.037783 186.487366,5.648427 207.634918,6.172109 
	C215.344528,6.363024 215.340591,6.660677 215.347580,14.138058 
	C215.353348,20.304012 215.605728,26.484463 215.257904,32.630707 
	C215.035782,36.555679 216.709091,37.960922 220.216263,38.484253 
	C232.542862,40.323605 244.852203,42.278633 258.161255,44.343868 
	C259.399384,34.429012 257.989868,24.344238 258.962799,14.296154 
	C263.292358,13.728094 266.870789,15.295077 270.451813,16.288969 
	C295.676666,23.289970 320.477417,31.442629 343.915314,43.354996 
	C347.257629,45.053741 348.423798,46.985886 348.410706,50.623852 
	C348.289307,84.452843 348.719147,118.288445 348.199493,152.110001 
	C347.718536,183.412552 344.584351,214.486435 336.472107,245.299454 
M228.597626,390.606903 
	C235.439957,384.227722 241.346680,377.011475 247.383774,369.893127 
	C271.232269,341.773376 289.177155,310.068878 302.709778,276.011505 
	C318.487457,236.304184 324.890259,194.701385 324.828064,152.010666 
	C324.819946,146.426193 323.139709,143.433426 318.260162,140.713867 
	C280.610535,119.730011 239.623917,111.109245 197.235458,108.447365 
	C171.129425,106.807968 145.092087,108.374046 119.176598,113.101372 
	C89.725578,118.473610 61.785606,127.505493 35.714993,142.295349 
	C31.972843,144.418274 29.981977,146.777817 30.286266,151.305740 
	C31.178408,164.581177 31.120199,177.949951 32.607578,191.149979 
	C36.102486,222.166168 43.007687,252.485504 54.975964,281.380890 
	C71.724152,321.816559 94.986366,358.096680 126.057487,389.147156 
	C127.130196,390.219208 127.927505,391.992767 130.378021,391.620728 
	C131.810394,379.140594 133.266876,366.645752 134.673141,354.145233 
	C136.232529,340.283783 137.784302,326.421234 139.267334,312.551453 
	C140.450775,301.483582 141.488159,290.400116 142.669907,279.332062 
	C143.085144,275.442902 141.623642,273.872803 137.627899,274.111664 
	C132.976776,274.389801 128.295166,274.116486 123.634064,274.284393 
	C120.554138,274.395386 118.925995,273.406006 118.987572,270.075531 
	C119.079964,265.078064 119.049774,260.075623 118.940956,255.078110 
	C118.870049,251.821823 120.372955,250.632050 123.519310,250.773697 
	C127.179062,250.938461 130.853500,250.760010 134.515732,250.892166 
	C137.457825,250.998337 138.695892,249.867538 138.696014,246.812866 
	C138.696838,225.981384 138.784821,205.149750 138.916534,184.318619 
	C138.935608,181.301163 137.673035,180.081833 134.713013,180.247559 
	C131.056244,180.452286 127.368088,180.303482 123.737366,180.704620 
	C120.507294,181.061462 119.006065,180.057648 119.043793,176.735886 
	C119.098648,171.903961 119.092422,167.069305 118.991051,162.238358 
	C118.925400,159.109985 120.164261,157.705627 123.426651,157.765610 
	C129.923477,157.885056 136.424973,157.782379 142.924210,157.730957 
	C152.711868,157.653534 151.620773,158.727081 151.647034,148.794052 
	C151.685669,134.171616 151.654678,134.268112 166.452301,134.704788 
	C169.984772,134.809036 171.247772,136.199783 171.063675,139.519836 
	C170.814789,144.008270 170.796585,148.512955 170.430603,152.990311 
	C170.160233,156.298019 171.014221,157.936890 174.726547,157.860626 
	C187.883301,157.590393 185.498856,158.894730 185.618088,147.484055 
	C185.753113,134.560883 185.650665,134.719070 198.690842,134.686508 
	C202.967667,134.675827 204.301147,136.336975 204.121887,140.290466 
	C203.956039,143.948013 204.429291,147.649704 204.079803,151.279846 
	C203.656693,155.674728 205.083405,157.760193 209.580032,158.906754 
	C226.533188,163.229553 236.231873,184.183792 228.883865,199.620453 
	C226.533005,204.559174 223.569397,209.111893 220.380203,214.268448 
	C221.294113,214.873825 222.031799,215.286392 222.684418,215.805847 
	C243.491333,232.367233 235.490723,261.672333 215.440659,271.235229 
	C212.552948,272.612518 212.084015,274.574097 212.364655,277.235260 
	C213.148376,284.666321 213.874786,292.104218 214.742218,299.525543 
	C216.901093,317.995819 219.116867,336.459473 221.327164,354.923676 
	C222.668839,366.131622 224.000259,377.341278 225.463806,388.533478 
	C225.621521,389.739685 225.244446,392.381378 228.597626,390.606903 
M285.282745,101.015884 
	C299.062988,105.100868 312.087708,111.115715 325.745392,118.252426 
	C325.745392,98.711891 325.725861,80.742035 325.766266,62.772316 
	C325.772400,60.051662 323.911316,59.176018 321.938019,58.136269 
	C310.828766,52.282696 298.818970,48.740665 287.072845,44.531334 
	C285.790985,44.071960 284.269867,43.314899 282.094208,44.784653 
	C282.094208,54.039745 282.094208,63.751205 282.094208,73.327103 
	C278.945526,73.981300 276.813873,72.753120 274.625946,72.140205 
	C249.375580,65.066734 223.560425,61.407166 197.480942,59.481586 
	C193.359268,59.177265 192.516479,57.421124 192.609634,53.839779 
	C192.782898,47.179596 192.521393,40.507641 192.717102,33.848701 
	C192.819077,30.379612 191.497940,29.028471 188.089142,29.091658 
	C181.095856,29.221281 174.098358,29.246744 167.104340,29.165272 
	C163.383072,29.121925 162.224426,30.838322 162.322296,34.397171 
	C162.510010,41.223003 162.305344,48.058689 162.375336,54.889141 
	C162.403564,57.644875 161.669632,59.143829 158.501282,59.324986 
	C131.658310,60.859760 105.404449,65.850555 79.532814,73.033913 
	C78.176498,73.410500 76.720665,74.207344 75.003784,73.080269 
	C73.777580,63.612633 75.658340,53.804214 73.954971,43.937443 
	C72.082817,44.194004 70.727127,44.180855 69.504784,44.578075 
	C57.317036,48.538647 45.031338,52.206432 33.588364,58.197723 
	C30.517967,59.805325 29.220184,61.550163 29.258429,65.079681 
	C29.435339,81.406273 29.328981,97.735825 29.379601,114.064133 
	C29.383904,115.452034 28.770042,117.114571 30.706148,118.314026 
	C32.205132,117.612961 33.888336,116.920418 35.483891,116.064476 
	C47.846764,109.432343 60.649052,103.673119 74.088203,99.778870 
	C115.975708,87.641190 158.611465,82.280746 202.326340,85.513771 
	C230.355789,87.586739 257.703003,92.548241 285.282745,101.015884 
M189.825500,284.309998 
	C189.764496,282.812103 189.645126,281.313843 189.653412,279.816345 
	C189.678436,275.286469 188.180023,272.621155 182.923767,273.049316 
	C179.474152,273.330353 175.954285,272.670715 172.461975,272.526642 
	C168.720810,272.372314 166.518005,273.216461 166.129517,277.950775 
	C164.812271,294.003632 163.008835,310.021881 161.121750,326.021576 
	C157.835953,353.880341 154.379608,381.719238 150.881378,409.552216 
	C150.640396,411.469574 151.039413,412.799530 152.326385,414.002899 
	C159.651367,420.851898 167.661728,426.802185 176.103180,432.198975 
	C177.733292,433.241150 179.065063,433.253876 180.648514,432.108154 
	C188.340057,426.542664 196.179626,421.172241 203.118851,414.641022 
	C204.501785,413.339417 205.239426,411.990967 204.942123,409.826019 
	C203.203140,397.163361 201.617096,384.478790 200.086273,371.788727 
	C198.217331,356.295715 196.455139,340.789886 194.644455,325.289856 
	C193.083725,311.929474 191.519714,298.569489 189.825500,284.309998 
M199.901230,225.308563 
	C189.330841,223.646133 178.677490,224.415970 168.057175,224.247406 
	C165.951843,224.213989 163.289291,223.829636 163.240677,227.054718 
	C163.119034,235.121841 163.200531,243.192047 163.200531,251.737778 
	C174.901123,251.610306 186.358719,252.586975 197.725784,251.098404 
	C206.404602,249.961884 209.114136,246.834290 210.156143,238.801651 
	C210.953033,232.658478 208.196182,228.755981 199.901230,225.308563 
M162.406448,183.070633 
	C162.407166,188.051788 162.627762,193.045593 162.341766,198.010239 
	C162.095520,202.284988 163.505524,203.983719 167.965881,203.817078 
	C175.759140,203.525940 183.570953,203.704208 191.374771,203.738205 
	C194.050674,203.749863 196.687134,203.623535 199.216507,202.657379 
	C204.805847,200.522415 207.627594,195.269684 206.556854,189.006180 
	C205.502457,182.838287 202.732269,180.318787 195.985046,180.205475 
	C186.194534,180.041061 176.398605,180.185852 166.605103,180.226654 
	C164.955673,180.233521 163.182846,180.127014 162.406448,183.070633 
z"/>
</svg>